<svg role="img" xmlns="http://www.w3.org/2000/svg" xmlns:xlink="http://www.w3.org/1999/xlink" version="1.1" x="0px" y="0px" viewBox="0 0 90 90" style="enable-background:new 0 0 90 90;" xml:space="preserve">
    <title id="attribution">Mouse by Nico Ilk from the Noun Project</title>
    <g><path d="M45,1C30.5,1,18.7,12.7,18.7,27.2v35.3C18.7,77,30.5,88.8,45,88.8c14.5,0,26.2-11.8,26.2-26.2V27.2C71.2,12.7,59.4,1,45,1z    M66.2,62.5c0,11.7-9.5,21.2-21.2,21.2c-11.7,0-21.2-9.5-21.2-21.2V27.2C23.8,15.5,33.3,6,45,6c11.7,0,21.2,9.5,21.2,21.2V62.5z"/><path d="M45,17.9c-2.2,0-4,1.8-4,4v7c0,2.2,1.8,4,4,4c2.2,0,4-1.8,4-4v-7C49,19.7,47.2,17.9,45,17.9z"/></g>
</svg>